<svg width="200" height="60" viewBox="0 0 200 60" fill="none" xmlns="http://www.w3.org/2000/svg">
<path d="M45.5 35C45.5 43.2843 38.7843 50 30.5 50C22.2157 50 15.5 43.2843 15.5 35" stroke="#C86C45" stroke-width="3" stroke-linecap="round"/>
<path d="M50 30C50 41.0457 41.0457 50 30 50C18.9543 50 10 41.0457 10 30" stroke="#376879" stroke-width="3" stroke-linecap="round"/>
<path d="M12 28H48" stroke="#C86C45" stroke-width="2"/>
<path d="M15 22C15 22 18 10 30 10C42 10 45 22 45 22" stroke="#376879" stroke-width="2"/>
<circle cx="30" cy="16" r="3" fill="#EAB308"/>
<path d="M20 18L22 14" stroke="#C86C45" stroke-width="1.5"/>
<path d="M40 18L38 14" stroke="#C86C45" stroke-width="1.5"/>
<text x="65" y="38" font-family="Arial, sans-serif" font-weight="bold" font-size="24" fill="#376879">Dasturkhon</text>
</svg>